<svg width="39.000000" height="47.000000" viewBox="0 0 39 47" fill="none" xmlns="http://www.w3.org/2000/svg" xmlns:xlink="http://www.w3.org/1999/xlink">
	<desc>
			Created with Pixso.
	</desc>
	<defs/>
	<path id="Vector" d="M27.65 -0.71C25.43 -0.45 22.28 1.51 20.71 3.61C19.81 4.81 19.28 5.96 18.82 7.69L18.59 8.55L18.6 9.47C18.61 9.98 18.64 10.45 18.67 10.52C18.74 10.7 18.87 10.73 19.84 10.74C20.64 10.74 20.68 10.74 21.37 10.53C23.2 10 24.53 9.21 25.49 8.07C25.72 7.79 26.06 7.42 26.24 7.24C26.84 6.65 27.61 5.33 28.04 4.2C28.47 3.05 28.66 1.99 28.71 0.48L28.75 -0.48L28.6 -0.63C28.45 -0.79 28.36 -0.79 27.65 -0.71Z" fill="#717171" fill-opacity="1.000000" fill-rule="nonzero"/>
	<path id="Vector" d="M27.14 10.59C26.06 10.65 23.15 11.46 21.05 12.28C19.78 12.78 19.78 12.78 19.53 12.82C19.09 12.89 18.02 12.58 16.18 11.84C15.2 11.45 14.19 11.15 12.71 10.81C12.08 10.68 11.05 10.66 10.6 10.79C10.42 10.84 9.85 10.95 9.34 11.04C8.23 11.23 7.61 11.43 6.78 11.84C4.27 13.06 2.56 14.82 1.2 17.58C0.6 18.79 0.16 19.98 -0.17 21.24C-0.66 23.12 -0.67 26.72 -0.19 28.9C-0.14 29.17 -0.09 29.48 -0.09 29.61C-0.09 29.87 -0.04 30.07 0.42 31.88C0.84 33.55 0.8 33.42 1.62 35.46C2.76 38.33 3.12 38.97 5.45 42.19C6.41 43.51 6.9 44.11 7.6 44.82C8.34 45.58 8.94 46.02 9.78 46.43C10.73 46.9 11.15 47 12.02 46.99C13.14 46.99 14.05 46.77 15.76 46.04C16.85 45.59 16.92 45.57 18.89 45.16C19.48 45.04 20.02 45.05 20.85 45.18C21.14 45.23 21.57 45.29 21.8 45.33C22.26 45.39 22.73 45.55 23.94 46.03C25.41 46.62 26.44 46.89 27.53 46.95C29.1 47.05 30.62 46.35 32.25 44.79C33.9 43.19 35.45 41 37.01 38.04C37.44 37.24 38.11 35.6 38.22 35.11C38.27 34.91 38.35 34.67 38.41 34.57C38.47 34.47 38.52 34.33 38.52 34.27C38.52 34.08 38.12 33.77 37.41 33.41C36.08 32.73 34.78 31.56 33.9 30.24C33.27 29.29 32.63 27.88 32.48 27.04C32.21 25.66 32.13 24.15 32.28 23.1C32.32 22.83 32.46 22.25 32.59 21.82C33.15 19.92 33.54 19.16 34.42 18.22C34.69 17.94 34.91 17.68 34.91 17.66C34.91 17.57 36.25 16.45 36.58 16.27C36.76 16.16 36.99 16 37.09 15.91C37.39 15.61 37.34 15.49 36.59 14.61C35.58 13.42 34.3 12.45 32.8 11.72C31.87 11.27 31.22 11.04 30.32 10.86C29.4 10.66 28.02 10.55 27.14 10.59Z" fill="#717171" fill-opacity="1.000000" fill-rule="nonzero"/>
</svg>
